<?xml version="1.0" encoding="utf-8"?>
<!-- Generator: Adobe Illustrator 19.0.0, SVG Export Plug-In . SVG Version: 6.00 Build 0)  -->
<svg version="1.1" id="Capa_1" xmlns="http://www.w3.org/2000/svg" xmlns:xlink="http://www.w3.org/1999/xlink" x="0px" y="0px"
	 viewBox="-231.8 396.9 114.6 40.6" style="enable-background:new -231.8 396.9 114.6 40.6;" xml:space="preserve">
<style type="text/css">
	.st0{fill:#65ADC6;stroke:#65ADC6;stroke-width:0.1626;stroke-miterlimit:10;}
	.st1{fill:#3C3C3B;stroke:#474341;stroke-width:0.1626;stroke-miterlimit:10;}
</style>
<g>
	<g>
		<g id="XMLID_21_">
			<path id="XMLID_22_" class="st0" d="M-182.9,435.6c0.2,0,0.3,0,0.5,0v0.4c-0.7,0.1-1.5,0.2-2.4,0.2s-2-0.2-3.3-0.6
				c-1.3-0.4-2.5-1.1-3.6-2.2c-2.2-2.2-3.5-5-4-8.5l-2.5-17.4l-8.1,18.4c-0.7,1.6-1.2,2.9-1.3,4h-0.4l-10.1-22l-1.7,19.5
				c-0.1,0.4,0.1,0.8,0.4,1.2c0.3,0.3,0.7,0.5,1.1,0.5h0.6v0.4h-7.7v-0.4h0.6c0.7,0,1.3-0.2,1.9-0.6c0.5-0.4,0.9-1,1-1.7l2.5-21.4
				c-2.3-4.5-5-6.8-8.3-6.8c-0.3,0-0.6,0-0.9,0v-0.5c0.7-0.2,1.3-0.3,1.7-0.3c0.4,0,0.9,0,1.4,0.1c0.5,0,1.1,0.2,1.8,0.4
				c0.7,0.2,1.4,0.5,2,0.9c0.7,0.3,1.3,0.8,1.7,1.2c0.5,0.4,0.9,0.9,1.3,1.4c0.7,0.9,1.3,1.8,1.7,2.7l9.4,20.4l10.6-23.5h0.4
				l3.6,23.1c0.5,3.7,1.7,6.4,3.5,8.3C-187.6,434.7-185.5,435.6-182.9,435.6z"/>
		</g>
	</g>
	<g>
		<g id="XMLID_99_">
			<path id="XMLID_113_" class="st0" d="M-191.3,420.6c0.3,0,0.6-0.1,0.8-0.3c0.2-0.2,0.3-0.5,0.4-0.8v-10.3c0-0.3-0.1-0.6-0.4-0.8
				c-0.2-0.2-0.5-0.3-0.8-0.3h-0.2v-0.2h4v0.2h-0.2c-0.3,0-0.6,0.1-0.8,0.3c-0.2,0.2-0.3,0.5-0.4,0.8v10.3c0,0.3,0.1,0.6,0.4,0.8
				c0.2,0.2,0.5,0.3,0.8,0.3h0.2v0.2h-4v-0.2C-191.5,420.6-191.3,420.6-191.3,420.6z"/>
			<path id="XMLID_111_" class="st0" d="M-184.6,420.6c0.3,0,0.6-0.1,0.8-0.3c0.2-0.2,0.3-0.5,0.4-0.8v-10.3c0-0.3-0.1-0.6-0.4-0.8
				c-0.2-0.2-0.5-0.3-0.8-0.3h-0.2v-0.2h4v0.2h-0.2c-0.4,0-0.8,0.2-1,0.6c-0.1,0.2-0.2,0.4-0.2,0.6v11h2.6c0.9,0,1.6-0.2,2.1-0.6
				c0.5-0.4,0.9-1,1.2-1.8h0.2l-1.1,3h-7.7v-0.2h0.3V420.6z"/>
			<path id="XMLID_109_" class="st0" d="M-174.1,420.6c0.3,0,0.6-0.1,0.8-0.3c0.2-0.2,0.3-0.5,0.4-0.8v-10.3c0-0.3-0.1-0.6-0.4-0.8
				c-0.2-0.2-0.5-0.3-0.8-0.3h-0.2v-0.2h4v0.2h-0.2c-0.4,0-0.8,0.2-1,0.6c-0.1,0.2-0.2,0.4-0.2,0.6v11h2.6c0.9,0,1.6-0.2,2.1-0.6
				c0.5-0.4,0.9-1,1.2-1.8h0.2l-1.1,3h-7.7v-0.2h0.3V420.6z"/>
			<path id="XMLID_107_" class="st0" d="M-163.6,420.6c0.3,0,0.6-0.1,0.8-0.3c0.2-0.2,0.3-0.5,0.4-0.8v-10.4c0-0.3-0.1-0.5-0.4-0.7
				c-0.2-0.2-0.5-0.3-0.8-0.3h-0.2v-0.2h5.4c0.4,0,0.8,0,1.2-0.1c0.4-0.1,0.8-0.1,1-0.2v2.3h-0.2v-0.3c0-0.3-0.1-0.5-0.3-0.8
				c-0.2-0.2-0.4-0.3-0.7-0.3h-3.8v5.7h3.1c0.2,0,0.5-0.1,0.6-0.3c0.2-0.2,0.3-0.4,0.3-0.6V413h0.2v2.9h-0.2v-0.3
				c0-0.2-0.1-0.5-0.2-0.6c-0.2-0.2-0.4-0.3-0.6-0.3h-3.1v5.5h2.6c0.9,0,1.6-0.2,2.1-0.6s0.9-1,1.2-1.8h0.2l-1.1,3h-7.7v-0.2
				C-163.8,420.6-163.6,420.6-163.6,420.6z"/>
			<path id="XMLID_105_" class="st0" d="M-139.5,408.1c-0.3,0-0.6,0.1-0.8,0.3c-0.2,0.2-0.3,0.5-0.4,0.8v9.5c0,0.7,0,1.4,0.1,2v0.3
				h-0.2l-9.9-10.7v9.2c0,0.3,0.1,0.6,0.3,0.8c0.2,0.2,0.5,0.3,0.8,0.3h0.4v0.2h-3.8v-0.2h0.4c0.3,0,0.6-0.1,0.8-0.3
				c0.2-0.2,0.3-0.5,0.3-0.8v-9.6c0-0.8,0-1.4-0.1-2v-0.3h0.2l10.1,10.7v-9.2c0-0.3-0.1-0.6-0.4-0.8c-0.2-0.2-0.5-0.3-0.8-0.3h-0.4
				v-0.2h3.8v0.2h-0.4V408.1z"/>
			<path id="XMLID_103_" class="st0" d="M-136.7,420.6c0.3,0,0.6-0.1,0.8-0.3c0.2-0.2,0.3-0.5,0.4-0.8v-10.3c0-0.3-0.1-0.6-0.4-0.8
				c-0.2-0.2-0.5-0.3-0.8-0.3h-0.2v-0.2h4v0.2h-0.2c-0.3,0-0.6,0.1-0.8,0.3c-0.2,0.2-0.3,0.5-0.4,0.8v10.3c0,0.3,0.1,0.6,0.4,0.8
				c0.2,0.2,0.5,0.3,0.8,0.3h0.2v0.2h-4v-0.2C-136.9,420.6-136.7,420.6-136.7,420.6z"/>
			<path id="XMLID_100_" class="st0" d="M-118.2,420.6L-118.2,420.6l0.1,0.2h-4.2v-0.2h0.2c0.3,0,0.5-0.1,0.6-0.2
				c0.1-0.2,0.2-0.3,0.2-0.5c0-0.1,0-0.3-0.1-0.4l-1.2-3.1h-5l-1.2,3.2c-0.1,0.1-0.1,0.3-0.1,0.4s0.1,0.3,0.2,0.5s0.3,0.2,0.6,0.2
				h0.2v0.2h-3.7v-0.2h0.2c0.3,0,0.6-0.1,0.9-0.3c0.3-0.2,0.5-0.5,0.7-0.9l4.2-9.9c0.5-1,0.7-1.6,0.7-1.9h0.2l4.9,11.8
				c0.2,0.4,0.4,0.7,0.7,0.9C-118.8,420.5-118.5,420.6-118.2,420.6z M-127.2,415.8h4.5l-2.2-5.9L-127.2,415.8z"/>
		</g>
	</g>
	<g>
		<path class="st1" d="M-186,430.8c-0.6-0.6-0.9-1.4-0.9-2.4s0.3-1.8,0.9-2.4s1.4-0.9,2.4-0.9c0.8,0,1.5,0.2,2.1,0.6l0.2,1.3h-0.1
			c-0.1-0.5-0.4-0.9-0.8-1.2c-0.4-0.3-0.9-0.4-1.4-0.4c-0.8,0-1.4,0.3-1.9,0.8s-0.7,1.3-0.7,2.2s0.2,1.6,0.7,2.2
			c0.5,0.5,1.1,0.8,1.8,0.8s1.2-0.2,1.7-0.5c0.5-0.4,0.8-1,0.9-1.9h0.1l-0.1,1.4c-0.5,0.9-1.4,1.3-2.5,1.3
			C-184.6,431.7-185.4,431.4-186,430.8z"/>
		<path class="st1" d="M-169.7,431.5L-169.7,431.5L-169.7,431.5h-2l0,0h0.1c0.1,0,0.2,0,0.3-0.1s0.1-0.2,0.1-0.2s0-0.1,0-0.2
			l-0.6-1.5h-2.4l-0.6,1.5c0,0.1,0,0.1,0,0.2c0,0.1,0,0.1,0.1,0.2c0.1,0.1,0.2,0.1,0.3,0.1h0.1l0,0h-1.8l0,0h0.1
			c0.1,0,0.3,0,0.4-0.1s0.3-0.2,0.3-0.4l2-4.8c0.2-0.5,0.3-0.8,0.3-0.9h0.1l2.4,5.7c0.1,0.2,0.2,0.3,0.3,0.4
			C-170,431.4-169.9,431.5-169.7,431.5z M-174.1,429.1h2.2l-1.1-2.9L-174.1,429.1z"/>
		<path class="st1" d="M-160.6,427c0,0.3-0.1,0.5-0.2,0.7c-0.2,0.4-0.5,0.7-1,0.9c-0.2,0.1-0.3,0.1-0.4,0.1c-0.4,0-0.7-0.1-1-0.2
			v-0.1c0.4,0.1,0.8,0,1.2-0.1c0.3-0.2,0.6-0.4,0.7-0.8c0-0.1,0.1-0.2,0.1-0.3c0-0.1,0-0.2,0-0.2c0-0.4-0.1-0.7-0.3-1
			c-0.2-0.2-0.5-0.4-0.9-0.4h-1v5.3c0,0.2,0.1,0.3,0.2,0.4c0.1,0.1,0.2,0.2,0.4,0.2h0.1l0,0h-2l0,0h0.1c0.2,0,0.3-0.1,0.4-0.2
			c0.1-0.1,0.2-0.2,0.2-0.4v-5c0-0.1-0.1-0.3-0.2-0.4s-0.2-0.1-0.4-0.1h-0.1v-0.1h2.3c0.6,0,1,0.2,1.3,0.5
			C-160.7,426.1-160.6,426.5-160.6,427z"/>
		<path class="st1" d="M-155.1,431.5c0.2,0,0.3-0.1,0.4-0.2c0.1-0.1,0.2-0.2,0.2-0.4v-5c0-0.2-0.1-0.3-0.2-0.4s-0.2-0.2-0.4-0.2
			h-0.1v-0.1h2v0.1h-0.1c-0.2,0-0.3,0.1-0.4,0.2s-0.2,0.2-0.2,0.4v5c0,0.2,0.1,0.3,0.2,0.4c0.1,0.1,0.2,0.2,0.4,0.2h0.1l0,0H-155.1
			L-155.1,431.5L-155.1,431.5z"/>
		<path class="st1" d="M-143,426.1c0-0.1-0.1-0.3-0.2-0.4c-0.1-0.1-0.2-0.2-0.4-0.2h-1.7v5.4c0,0.2,0.1,0.3,0.2,0.4
			c0.1,0.1,0.2,0.2,0.4,0.2h0.1l0,0h-2l0,0h0.1c0.2,0,0.3-0.1,0.4-0.2c0.1-0.1,0.2-0.2,0.2-0.4v-5.4h-1.7c-0.1,0-0.3,0.1-0.4,0.2
			c-0.1,0.1-0.1,0.2-0.1,0.4v0.2h-0.1v-1.1c0.1,0,0.2,0.1,0.5,0.1c0.2,0,0.4,0.1,0.6,0.1h3c0.3,0,0.5,0,0.7-0.1
			c0.2,0,0.3-0.1,0.4-0.1v1.1h-0.1v-0.2H-143z"/>
		<path class="st1" d="M-132.4,431.5L-132.4,431.5L-132.4,431.5l-1.9,0.1v-0.1h0.1c0.1,0,0.2,0,0.3-0.1c0.1-0.1,0.1-0.2,0.1-0.2
			s0-0.1,0-0.2l-0.6-1.5h-2.6l-0.6,1.5c0,0.1,0,0.1,0,0.2c0,0.1,0,0.1,0.1,0.2s0.2,0.1,0.3,0.1h0.1l0,0h-1.8l0,0h0.1
			c0.1,0,0.3,0,0.4-0.1c0.1-0.1,0.3-0.2,0.3-0.4l2-4.8c0.2-0.5,0.3-0.8,0.3-0.9h0.1l2.4,5.7c0.1,0.2,0.2,0.3,0.3,0.4
			C-132.8,431.4-132.6,431.5-132.4,431.5z M-136.8,429.1h2.2l-1.1-2.9L-136.8,429.1z"/>
		<path class="st1" d="M-127.4,431.5c0.2,0,0.3-0.1,0.4-0.2c0.1-0.1,0.2-0.2,0.2-0.4v-5c0-0.2-0.1-0.3-0.2-0.4s-0.2-0.2-0.4-0.2
			h-0.1v-0.1h2v0.1h-0.1c-0.2,0-0.4,0.1-0.5,0.3c-0.1,0.1-0.1,0.2-0.1,0.3v5.3h1.3c0.4,0,0.8-0.1,1-0.3s0.4-0.5,0.6-0.9h0.1
			l-0.5,1.4h-3.7L-127.4,431.5L-127.4,431.5z"/>
	</g>
</g>
</svg>
